<svg xmlns="http://www.w3.org/2000/svg" viewBox="0 0 100 100"><path d="M23.806 31.976c.036.055.08.101.124.147a24.725 24.725 0 0 0-7.161 12.5h-1.987a1 1 0 0 0-1 1v6.505c0 17.609 10.421 32.886 25.933 38.013a.993.993 0 0 0 .314.051h20.473a.993.993 0 0 0 .314-.051c15.511-5.127 25.933-20.403 25.933-38.013v-6.505a1 1 0 0 0-1-1h-1.815a15.802 15.802 0 0 0-9.781-13.643A17.804 17.804 0 0 0 57.98 20.622c-4.71 0-9.118 1.812-12.472 5.117a24.753 24.753 0 0 0-13.47 1.272l-9.432-14.624a4.798 4.798 0 0 0-6.627-1.431 4.764 4.764 0 0 0-2.087 3.019 4.762 4.762 0 0 0 .658 3.609l9.256 14.392zm-8.024 14.648h68.966v5.505c0 16.688-9.802 31.158-24.409 36.063H40.19c-14.607-4.905-24.409-19.376-24.409-36.063v-5.505zm25.202-19.296c1.567 0 3.133.16 4.655.476.341.068.688-.039.926-.288 3.018-3.155 7.071-4.893 11.415-4.893 6.305 0 12 3.743 14.509 9.535.107.247.31.441.562.537a13.808 13.808 0 0 1 8.879 11.929H18.824c2.524-10.089 11.642-17.296 22.16-17.296zm-15.55 3.484l-9.205-14.309a2.779 2.779 0 0 1-.384-2.105 2.773 2.773 0 0 1 1.216-1.758 2.799 2.799 0 0 1 3.863.833l9.253 14.345a24.946 24.946 0 0 0-4.743 2.994z"/></svg>