<svg xmlns="http://www.w3.org/2000/svg" viewBox="0 0 54 54"><path fill="#204970" d="M15.2 27.5c-.3 0-.5-.2-.5-.5s.2-.5.5-.5h30c.3 0 .5.2.5.5s-.2.5-.5.5h-30zm0 12c-.3 0-.5-.2-.5-.5s.2-.5.5-.5h30c.3 0 .5.2.5.5s-.2.5-.5.5h-30zm0-24c-.3 0-.5-.2-.5-.5s.2-.5.5-.5h30c.3 0 .5.2.5.5s-.2.5-.5.5h-30zM8.2 27c0-.8.7-1.5 1.5-1.5s1.5.7 1.5 1.5-.7 1.5-1.5 1.5-1.5-.7-1.5-1.5zm0 12c0-.8.7-1.5 1.5-1.5s1.5.7 1.5 1.5-.7 1.5-1.5 1.5-1.5-.7-1.5-1.5zm0-24c0-.8.7-1.5 1.5-1.5s1.5.7 1.5 1.5-.7 1.5-1.5 1.5-1.5-.7-1.5-1.5z"/></svg>