<svg xmlns="http://www.w3.org/2000/svg" viewBox="0 0 100 100"><path d="M50.045 96.5H50a46.243 46.243 0 0 1-17.744-3.506 3.001 3.001 0 0 1 2.291-5.546A40.242 40.242 0 0 0 50 90.5c1.656 0 3.022 1.344 3.022 3 0 1.658-1.321 3-2.977 3zm16.637-3.311a3 3 0 0 1-1.152-5.773 40.362 40.362 0 0 0 13.123-8.793 3 3 0 1 1 4.244 4.24 46.35 46.35 0 0 1-15.064 10.095 2.99 2.99 0 0 1-1.151.231zm-47.395-9.383a2.992 2.992 0 0 1-2.117-.875A46.31 46.31 0 0 1 7.061 67.877a3.002 3.002 0 0 1 1.615-3.924 2.999 2.999 0 0 1 3.924 1.615 40.318 40.318 0 0 0 8.807 13.112 3 3 0 0 1-2.12 5.126zm70.916-14.165a3.001 3.001 0 0 1-2.77-4.149A40.275 40.275 0 0 0 90.5 50v-.179a3 3 0 1 1 6 0V50a46.24 46.24 0 0 1-3.524 17.788 3.003 3.003 0 0 1-2.773 1.853zM6.5 53.045c-1.656 0-3-1.298-3-2.955V50a46.25 46.25 0 0 1 3.488-17.7 3.001 3.001 0 0 1 5.548 2.286A40.254 40.254 0 0 0 9.5 50c0 1.657-1.344 3.045-3 3.045zm83.636-16.848a3.001 3.001 0 0 1-2.768-1.841 40.342 40.342 0 0 0-8.833-13.095 3 3 0 0 1 4.228-4.258 46.336 46.336 0 0 1 10.138 15.034 3 3 0 0 1-2.765 4.16zM19.162 22.319a3 3 0 0 1-2.126-5.117A46.327 46.327 0 0 1 32.08 7.078a3.001 3.001 0 0 1 2.315 5.536 40.352 40.352 0 0 0-13.105 8.82 2.991 2.991 0 0 1-2.128.885zm47.354-9.573c-.38 0-.766-.073-1.139-.226A40.272 40.272 0 0 0 50 9.5h-.135a3 3 0 0 1 0-6h.102c6.144 0 12.084 1.167 17.689 3.47a3 3 0 0 1-1.14 5.776z"/></svg>