<svg xmlns="http://www.w3.org/2000/svg" viewBox="0 0 100 100"><path d="M62.861 10.449H34.29c-.419 0-.794.262-.939.655-.299.817-7.253 20.124.166 30.748 2.916 4.176 7.652 6.38 14.047 6.613v39.984h-9.037a1 1 0 1 0 0 2H58.6a1 1 0 1 0 0-2h-9.037V48.475c6.503-.188 11.301-2.393 14.229-6.609 7.378-10.623.309-29.948.004-30.766a.997.997 0 0 0-.935-.651zm-27.856 2H62.15c.597 1.777 2.203 6.962 2.769 12.759-1.551.628-3.435 1.172-6.385 1.172-3.985 0-6.1-.99-8.34-2.038-2.338-1.094-4.757-2.226-9.184-2.226-4.052 0-6.419.946-8.581 1.945.618-5.321 2.027-9.948 2.576-11.612zm27.144 28.279c-2.667 3.838-7.2 5.784-13.472 5.784-6.281 0-10.83-1.952-13.519-5.801-2.73-3.908-3.273-9.286-2.94-14.346l.446-.208c2.239-1.05 4.354-2.041 8.346-2.041 3.982 0 6.098.989 8.336 2.037 2.339 1.095 4.758 2.227 9.188 2.227 2.912 0 4.943-.503 6.539-1.089.235 4.789-.372 9.765-2.924 13.437z"/></svg>